HIERARCHY
ROOT Hips
{
	OFFSET 0.00000 0.00000 0.00000
	CHANNELS 6 Xposition Yposition Zposition Zrotation Yrotation Xrotation 
	JOINT LHipJoint
	{
		OFFSET 0 0 0
		CHANNELS 3 Zrotation Yrotation Xrotation
		JOINT LeftUpLeg
		{
			OFFSET 1.57314 -1.85774 0.63783
			CHANNELS 3 Zrotation Yrotation Xrotation
			JOINT LeftLeg
			{
				OFFSET 2.57982 -7.08799 0.00000
				CHANNELS 3 Zrotation Yrotation Xrotation
				JOINT LeftFoot
				{
					OFFSET 2.63993 -7.25315 0.00000
					CHANNELS 3 Zrotation Yrotation Xrotation
					JOINT LeftToeBase
					{
						OFFSET 0.16864 -0.46332 2.12791
						CHANNELS 3 Zrotation Yrotation Xrotation
						End Site
						{
							OFFSET 0.00000 -0.00000 1.09718
						}
					}
				}
			}
		}
	}
	JOINT RHipJoint
	{
		OFFSET 0 0 0
		CHANNELS 3 Zrotation Yrotation Xrotation
		JOINT RightUpLeg
		{
			OFFSET -1.56006 -1.85774 0.63784
			CHANNELS 3 Zrotation Yrotation Xrotation
			JOINT RightLeg
			{
				OFFSET -2.54246 -6.98536 0.00000
				CHANNELS 3 Zrotation Yrotation Xrotation
				JOINT RightFoot
				{
					OFFSET -2.65791 -7.30256 0.00000
					CHANNELS 3 Zrotation Yrotation Xrotation
					JOINT RightToeBase
					{
						OFFSET -0.18435 -0.50650 2.16316
						CHANNELS 3 Zrotation Yrotation Xrotation
						End Site
						{
							OFFSET -0.00000 -0.00000 1.11780
						}
					}
				}
			}
		}
	}
	JOINT LowerBack
	{
		OFFSET 0 0 0
		CHANNELS 3 Zrotation Yrotation Xrotation
		JOINT Spine
		{
			OFFSET -0.00136 1.92812 -0.29638
			CHANNELS 3 Zrotation Yrotation Xrotation
			JOINT Spine1
			{
				OFFSET -0.00528 1.96223 -0.02928
				CHANNELS 3 Zrotation Yrotation Xrotation
				JOINT Neck
				{
					OFFSET 0 0 0
					CHANNELS 3 Zrotation Yrotation Xrotation
					JOINT Neck1
					{
						OFFSET -0.01015 1.75586 0.07797
						CHANNELS 3 Zrotation Yrotation Xrotation
						JOINT Head
						{
							OFFSET 0.05540 1.72452 0.04558
							CHANNELS 3 Zrotation Yrotation Xrotation
							End Site
							{
								OFFSET 0.02170 1.79958 0.00864
							}
						}
					}
				}
				JOINT LeftShoulder
				{
					OFFSET 0 0 0
					CHANNELS 3 Zrotation Yrotation Xrotation
					JOINT LeftArm
					{
						OFFSET 3.16292 1.29277 -0.65728
						CHANNELS 3 Zrotation Yrotation Xrotation
						JOINT LeftForeArm
						{
							OFFSET 5.52302 -0.00000 -0.00000
							CHANNELS 3 Zrotation Yrotation Xrotation
							JOINT LeftHand
							{
								OFFSET 3.58675 -0.00000 -0.00000
								CHANNELS 3 Zrotation Yrotation Xrotation
								JOINT LeftFingerBase
								{
									OFFSET 0 0 0
									CHANNELS 3 Zrotation Yrotation Xrotation
									JOINT LeftHandIndex1
									{
										OFFSET 0.53641 -0.00000 -0.00000
										CHANNELS 3 Zrotation Yrotation Xrotation
										End Site
										{
											OFFSET 0.43247 -0.00000 -0.00000
										}
									}
								}
								JOINT LThumb
								{
									OFFSET 0 0 0
									CHANNELS 3 Zrotation Yrotation Xrotation
									End Site
									{
										OFFSET 0.43907 -0.00000 0.43907
									}
								}
							}
						}
					}
				}
				JOINT RightShoulder
				{
					OFFSET 0 0 0
					CHANNELS 3 Zrotation Yrotation Xrotation
					JOINT RightArm
					{
						OFFSET -3.08296 1.43376 -0.52927
						CHANNELS 3 Zrotation Yrotation Xrotation
						JOINT RightForeArm
						{
							OFFSET -5.84780 -0.00000 0.00000
							CHANNELS 3 Zrotation Yrotation Xrotation
							JOINT RightHand
							{
								OFFSET -3.62717 -0.00000 -0.00000
								CHANNELS 3 Zrotation Yrotation Xrotation
								JOINT RightFingerBase
								{
									OFFSET 0 0 0
									CHANNELS 3 Zrotation Yrotation Xrotation
									JOINT RightHandIndex1
									{
										OFFSET -0.65052 -0.00000 -0.00000
										CHANNELS 3 Zrotation Yrotation Xrotation
										End Site
										{
											OFFSET -0.52446 -0.00000 -0.00000
										}
									}
								}
								JOINT RThumb
								{
									OFFSET 0 0 0
									CHANNELS 3 Zrotation Yrotation Xrotation
									End Site
									{
										OFFSET -0.53247 -0.00000 0.53247
									}
								}
							}
						}
					}
				}
			}
		}
	}
}
MOTION
Frames: 9
Frame Time: .0083333
-0.3102 18.4951 10.9656 -5.7687 -0.7474 4.5063 0.0000 0.0000 0.0000 -7.8068 -16.3759 -38.9307 5.9155 14.3460 44.6418 0.0526 -6.0681 9.9630 0.8115 -5.7485 -16.0564 0.0000 0.0000 0.0000 33.4455 1.5819 31.0652 -0.6904 -5.3121 14.8008 -3.1777 -11.1530 32.2039 -1.6356 -8.0619 22.9022 7.4431 1.4265 11.5823 0.1188 2.8962 0.1597 -4.5415 1.2058 -5.9790 -0.9470 -1.0509 -6.5504 1.2981 -1.3284 -2.6929 0.5226 -0.6450 0.2669 -0.0000 -0.0000 0.0000 -83.8798 36.0186 36.3625 119.9120 -56.3333 -85.5857 -0.0000 0.0000 -31.1905 43.9546 11.9262 11.2683 -7.1250 0.0000 -0.0000 15.8435 45.7114 0.2854 -0.0000 -0.0000 0.0000 76.8499 -0.5883 47.0378 -121.4792 55.9027 -86.8868 0.0000 0.0000 2.1153 -47.7959 27.0884 -26.6624 7.1250 -0.0000 -0.0000 -10.0490 6.7973 -11.3341
-0.3256 18.4997 11.5099 -6.2368 -1.5410 4.5343 0.0000 0.0000 0.0000 -7.2928 -15.9459 -37.6554 4.7320 13.0755 39.6518 0.1212 -4.7995 10.0490 0.5986 -4.9529 -13.7742 0.0000 0.0000 0.0000 34.7540 3.4043 30.7748 -1.1392 -6.7782 19.0600 -2.8377 -10.8733 30.3753 -1.5170 -7.7777 22.0409 7.3928 1.7374 11.9300 0.2508 3.3418 0.1262 -4.4595 1.4179 -6.1629 -0.9883 -1.0495 -6.8167 1.1515 -1.3200 -2.9114 0.4840 -0.6408 0.2420 0.0000 -0.0000 0.0000 -84.2361 35.4763 36.1000 120.4211 -56.1967 -86.0090 -0.0000 0.0000 -31.4592 45.8137 12.8574 12.8950 -7.1250 0.0000 -0.0000 17.9136 47.2832 1.0413 0.0000 -0.0000 0.0000 76.8026 -1.1426 47.5440 -120.9313 56.0566 -86.4327 0.0000 0.0000 2.4895 -47.6540 26.1483 -25.8056 7.1250 -0.0000 -0.0000 -10.2293 5.5966 -11.3529
-0.3426 18.5004 12.0540 -6.9277 -3.0560 4.7147 0.0000 0.0000 0.0000 -6.5610 -14.9321 -36.3943 3.7650 11.8409 35.1715 0.1467 -3.6110 9.4877 0.5784 -4.8702 -13.5387 0.0000 0.0000 0.0000 35.3537 4.6801 30.0346 -1.6829 -8.1718 23.2372 -2.7646 -9.8377 29.9697 -1.4882 -7.7070 21.8277 7.3734 2.2563 12.0577 0.4055 4.0454 0.1720 -4.3982 1.7682 -6.1079 -1.0300 -1.0395 -6.7314 1.1174 -1.2987 -3.7216 0.4823 -0.6303 -0.0214 0.0000 0.0000 0.0000 -84.6534 34.5287 35.6915 120.5921 -56.1501 -86.1511 -0.0000 0.0000 -31.7482 46.4051 12.5998 12.9043 -7.1250 0.0000 -0.0000 18.4582 47.0619 0.9711 0.0000 0.0000 0.0000 76.7940 -1.4859 48.0873 -119.8844 56.3407 -85.5627 0.0000 0.0000 2.3144 -48.3802 26.2308 -26.4492 7.1250 -0.0000 -0.0000 -10.6070 6.0360 -11.8591
-0.3215 18.4362 12.6315 -6.3822 0.5497 4.0213 0.0000 0.0000 0.0000 -7.7917 -17.6320 -34.4184 3.0233 10.7327 31.3835 0.1530 -3.3967 9.4439 0.8179 -5.7708 -16.1210 0.0000 0.0000 0.0000 35.5098 1.6602 28.3607 -2.3048 -9.4740 27.2897 -2.6002 -9.6322 29.0365 -1.2131 -6.9868 19.6762 7.8283 0.9564 11.4081 0.2395 2.2858 0.7464 -4.5173 0.9422 -5.3259 -1.1271 -1.0091 -7.0094 1.2647 -1.2434 -4.1712 0.5443 -0.5998 -0.1125 0.0000 -0.0000 0.0000 -85.0004 33.2827 35.3215 120.4776 -56.1813 -86.0560 -0.0000 0.0000 -31.8354 46.1879 12.7956 12.9991 -7.1250 0.0000 -0.0000 18.2838 47.2774 1.0615 0.0000 -0.0000 0.0000 76.8045 -1.5077 48.4953 -118.2084 56.7687 -84.1642 0.0000 0.0000 2.0297 -49.8548 27.2451 -28.4924 7.1250 -0.0000 -0.0000 -11.1255 7.9917 -12.7916
-0.3379 18.3972 13.1684 -6.5024 0.9213 3.9805 0.0000 0.0000 0.0000 -8.0799 -17.3859 -33.3138 2.4764 9.7948 28.3149 0.1496 -2.7920 8.8888 1.0982 -6.6591 -18.7094 0.0000 0.0000 0.0000 35.6605 1.2499 26.9434 -3.0445 -10.7668 31.4972 -2.6018 -9.7584 29.0445 -0.9490 -6.2041 17.3778 7.6695 0.8216 11.1756 0.3148 2.0586 0.9817 -4.3022 0.8559 -4.9843 -1.3747 -0.9292 -6.8702 1.5197 -1.1116 -4.8208 0.6684 -0.5301 -0.3316 -0.0000 0.0000 0.0000 -85.3993 32.0116 34.9964 120.3694 -56.2107 -85.9661 -0.0000 0.0000 -31.7629 45.6510 13.5371 13.4662 -7.1250 0.0000 -0.0000 17.9045 48.1425 1.4309 -0.0000 0.0000 0.0000 76.7726 -1.8043 48.6945 -116.7616 57.1129 -82.9516 0.0000 0.0000 2.0269 -50.4479 27.2279 -28.9865 7.1250 -0.0000 -0.0000 -11.4510 8.2750 -13.2284
-0.3680 18.3612 13.7018 -6.5944 1.2314 4.0303 0.0000 0.0000 0.0000 -8.4850 -16.6723 -32.4572 2.0804 9.0316 25.8943 0.1324 -2.5287 8.2911 1.2738 -7.1531 -20.1697 0.0000 0.0000 0.0000 35.8745 1.0577 25.2487 -3.8985 -12.0241 35.8174 -2.5386 -10.4967 28.6834 -0.8671 -5.9373 16.6027 7.2585 0.7534 11.0068 0.3973 1.9028 1.0773 -3.9546 0.7975 -4.8248 -1.2175 -0.9083 -6.1083 1.3753 -1.0956 -5.9989 0.6072 -0.5275 -0.8176 -0.0000 -0.0000 0.0000 -85.5148 30.8910 34.9995 120.5131 -56.1717 -86.0855 -0.0000 0.0000 -31.5685 44.5033 13.0413 12.5043 -7.1250 0.0000 -0.0000 16.6114 47.2631 0.9529 -0.0000 -0.0000 0.0000 76.9207 -2.4544 48.7547 -115.3073 57.4360 -81.7281 0.0000 0.0000 1.7360 -49.2300 25.2428 -26.3159 7.1250 -0.0000 -0.0000 -11.3470 5.2290 -12.5732
-0.3818 18.3259 14.2400 -6.3838 1.2680 3.9413 0.0000 0.0000 0.0000 -9.4113 -15.7415 -31.4155 1.8012 8.4391 24.0559 0.1533 -1.3915 8.0425 1.2120 -6.9837 -19.6671 0.0000 0.0000 0.0000 35.4435 0.8877 23.3540 -4.9434 -13.3198 40.5778 -2.5792 -10.9694 28.9273 -0.9019 -6.0522 16.9359 6.7692 0.7333 11.1487 0.3094 1.8200 1.1545 -3.7631 0.7668 -4.8442 -1.1541 -0.8830 -5.5766 1.4211 -1.0617 -6.8515 0.6199 -0.5141 -1.1699 0.0000 0.0000 0.0000 -85.4851 29.6462 35.1438 120.5631 -56.1580 -86.1270 -0.0000 0.0000 -31.3895 42.5388 10.4485 9.4477 -7.1250 0.0000 -0.0000 14.2208 43.5652 -0.5146 0.0000 0.0000 0.0000 77.1572 -3.1377 48.8050 -113.1124 57.8821 -79.8736 0.0000 0.0000 0.8357 -47.7221 24.2425 -24.3036 7.1250 -0.0000 -0.0000 -10.7758 3.2907 -11.5785
-0.3827 18.2754 14.7770 -6.1351 0.8610 3.7236 0.0000 0.0000 0.0000 -10.5322 -14.3882 -30.1908 1.5898 7.9535 22.5730 0.1652 -0.4488 7.8523 1.2421 -7.0668 -19.9134 0.0000 0.0000 0.0000 34.6798 0.9125 21.5601 -6.1490 -14.5712 45.5768 -2.6918 -11.6473 29.5869 -0.9032 -6.0567 16.9490 6.3691 0.8401 11.5290 0.1478 1.9303 1.1912 -3.7352 0.8223 -5.0121 -1.2255 -0.8268 -5.5536 1.6709 -0.9726 -6.8955 0.7104 -0.4703 -1.1877 0.0000 -0.0000 0.0000 -85.3030 28.3095 35.4258 120.4889 -56.1782 -86.0654 -0.0000 0.0000 -31.4530 41.5626 9.6551 8.4585 -7.1250 0.0000 -0.0000 13.1895 42.4065 -0.8603 0.0000 -0.0000 0.0000 77.3699 -3.8785 48.6166 -110.4059 58.3666 -77.5751 0.0000 0.0000 0.5851 -47.1112 24.4204 -23.9928 7.1250 -0.0000 -0.0000 -10.3860 3.2408 -11.1369
-0.3899 18.2071 15.3157 -5.8131 0.4543 3.4032 0.0000 0.0000 0.0000 -11.7531 -12.8729 -28.8738 1.4360 7.5766 21.4352 0.1938 0.1060 8.2767 1.3473 -7.3485 -20.7521 0.0000 0.0000 0.0000 33.8442 0.9001 19.7484 -7.4852 -15.7273 50.6866 -2.7042 -12.5353 29.7018 -0.8625 -5.9219 16.5580 5.7787 0.9503 11.9805 -0.0132 2.0251 1.1133 -3.6030 0.8664 -5.3498 -1.1053 -0.7522 -5.2187 1.7705 -0.8778 -6.8258 0.7234 -0.4281 -1.2228 0.0000 0.0000 0.0000 -85.0918 27.2026 35.7852 120.4453 -56.1901 -86.0292 -0.0000 0.0000 -31.5584 41.8826 10.3568 9.1576 -7.1250 0.0000 -0.0000 13.5875 43.3504 -0.5642 0.0000 0.0000 0.0000 77.6115 -4.7955 48.3101 -107.3181 58.8359 -74.9393 0.0000 0.0000 0.7637 -47.2722 25.0420 -24.6201 7.1250 -0.0000 -0.0000 -10.3134 4.0752 -11.1979
